<svg xmlns="http://www.w3.org/2000/svg" width="677.76" height="211.49" viewBox="0 0 677.76 211.49">
	<g>
		<rect y="0.05" width="176.44" height="210.93" fill="#333" fill-opacity="0" />
		<path
			d="M143.23,503a20.15,20.15,0,0,0,2.2.15,19.57,19.57,0,0,0,18.08-12.24,18.12,18.12,0,0,0,0-13.24C141,420.09,153.43,451.28,94.71,305a19.47,19.47,0,0,0-36.07,14.51c73,182.18,68.83,172,69.83,173.76A19.43,19.43,0,0,0,143.23,503Z"
			transform="translate(-57.2 -292.42)" fill="#fcc048" />
		<path
			d="M221.41,294.17A19.46,19.46,0,0,0,196.09,305h0l-33.71,84.08a32.39,32.39,0,0,0-.11,23.93l11.28,28.87a5.16,5.16,0,0,0,9.59,0l49.09-122.42A19.48,19.48,0,0,0,221.41,294.17Z"
			transform="translate(-57.2 -292.42)" fill="#f96f14" />
	</g>
	<g>
		<rect x="176.44" y="0.05" width="177.96" height="210.93" fill="#333" fill-opacity="0" />
		<path
			d="M336.42,298.25a19.61,19.61,0,0,0-23.08-3.41,20.31,20.31,0,0,0-8.86,25.63l18,44,.14-.35,18.75,46.31h-.14l15.87,39c2.88,7.21-.09-.17,17.7,43.55a19.51,19.51,0,0,0,35.35-16.43C336.06,293.14,340.38,302.15,336.42,298.25Z"
			transform="translate(-57.2 -292.42)" fill="#d344b0" />
		<path
			d="M318.36,413.79a5.47,5.47,0,0,0-5.05-3.39h-5a3,3,0,0,1-3-3,3.11,3.11,0,0,1,.22-1.13l4-10a5.37,5.37,0,0,0,0-4.09l-16-39.34a4.6,4.6,0,0,0-8.54,0c.89-2.22-48,118.85-49.94,123.65a19.52,19.52,0,1,0,36.19,14.63h0l13.84-34.26a11.93,11.93,0,0,1,11.07-7.47H326.9a4,4,0,0,0,3.72-5.51Z"
			transform="translate(-57.2 -292.42)" fill="#fcc048" />
	</g>
	<g>
		<rect x="354.39" y="0.05" width="167.06" height="210.93" fill="#333" fill-opacity="0" />
		<path
			d="M493.77,501.47a6.55,6.55,0,0,0,7.87-4.91,6.11,6.11,0,0,0,.17-1.48V467.92a6.61,6.61,0,0,0-4.63-6.26,67,67,0,0,1,0-127.45,6.61,6.61,0,0,0,4.63-6.26V300.77a6.56,6.56,0,0,0-8-6.39,106.32,106.32,0,0,0,0,207.09Z"
			transform="translate(-57.2 -292.42)" fill="#2fc77a" />
		<path
			d="M529.78,332a66,66,0,0,1,19.89,7,19.65,19.65,0,0,0,26.62-8c.1-.18.19-.37.29-.56a20,20,0,0,0-8.9-26.41,106.58,106.58,0,0,0-35.87-11.53,6.56,6.56,0,0,0-7.37,5.63,6.4,6.4,0,0,0-.06.88v26.55A6.54,6.54,0,0,0,529.78,332Z"
			transform="translate(-57.2 -292.42)" fill="#fcc048" />
		<path
			d="M575.68,463.82a20,20,0,0,0-26.37-6.59A65.51,65.51,0,0,1,529.76,464a6.51,6.51,0,0,0-5.32,6.43v26.5a6.56,6.56,0,0,0,6.56,6.56,7.7,7.7,0,0,0,.83-.05,106.54,106.54,0,0,0,36.56-11.79,19.66,19.66,0,0,0,8-26.64Q576,464.38,575.68,463.82Z"
			transform="translate(-57.2 -292.42)" fill="#f65349" />
	</g>
	<g>
		<rect x="547.46" y="0.56" width="130.29" height="210.93" fill="#333" fill-opacity="0" />
		<path
			d="M672.64,415.33h33.84A19.51,19.51,0,0,0,726,395.82c0-.31,0-.63,0-.94a19.88,19.88,0,0,0-20.05-18.58H672.64a6.5,6.5,0,0,0-6.51,6.5v26a6.51,6.51,0,0,0,6.45,6.56Z"
			transform="translate(-57.2 -292.42)" fill="#f96f14" />
		<path
			d="M672.64,503.91h42.79A19.53,19.53,0,0,0,735,484.38c0-.33,0-.66,0-1a19.9,19.9,0,0,0-20.05-18.58H672.64a6.5,6.5,0,0,0-6.51,6.5h0v26a6.5,6.5,0,0,0,6.37,6.63Z"
			transform="translate(-57.2 -292.42)" fill="#07b4e5" />
		<path
			d="M672.64,332h42.79A19.53,19.53,0,0,0,735,312.51c0-.32,0-.63,0-.95A19.9,19.9,0,0,0,714.89,293H672.64a6.51,6.51,0,0,0-6.51,6.51v26a6.52,6.52,0,0,0,6.45,6.57Z"
			transform="translate(-57.2 -292.42)" fill="#f65349" />
		<path
			d="M637.2,293h-13a19.51,19.51,0,0,0-19.54,19.49V484.38a19.53,19.53,0,0,0,19.51,19.53h13a6.5,6.5,0,0,0,6.5-6.5V299.49A6.51,6.51,0,0,0,637.2,293Z"
			transform="translate(-57.2 -292.42)" fill="#fcc048" />
	</g>
</svg>